<?xml version="1.0" encoding="UTF-8"?>
<svg xmlns="http://www.w3.org/2000/svg" viewBox="0 0 48 48" width="48" height="48">
  <path fill="#4285F4" d="M24 9.5c3.54 0 6.35 1.22 8.26 2.22l6.05-6.05C35.86 2.66 30.32 0 24 0 14.59 0 6.6 5.9 3.22 14.21l7.05 5.48C11.74 13.06 17.36 9.5 24 9.5z"/>
  <path fill="#34A853" d="M46.9 24.5c0-1.6-.14-2.8-.46-4.05H24v7.7h12.84c-.5 3.18-2.84 6.12-6.38 7.84l6.05 4.69C43.96 38.07 46.9 31.83 46.9 24.5z"/>
  <path fill="#FBBC05" d="M10.27 29.69A14.45 14.45 0 0 1 9 24.5c0-1.9.34-3.7.93-5.39L3.22 13.63A23.98 23.98 0 0 0 0 24.5c0 3.93.9 7.64 2.57 10.96l7.7-5.77z"/>
  <path fill="#EA4335" d="M24 48c6.33 0 11.87-2.08 15.8-5.66l-7.7-5.96C30.12 36.85 27.47 37.8 24 37.8c-6.64 0-12.26-3.56-13.73-8.38l-7.05 5.48C6.6 42.1 14.59 48 24 48z"/>
  <path fill="none" d="M0 0h48v48H0z"/>
</svg>